<svg xmlns="http://www.w3.org/2000/svg" width="512" height="512" viewBox="0 0 512 512">
  <defs>
    <linearGradient id="grad1" x1="0%" y1="0%" x2="100%" y2="100%">
      <stop offset="0%" style="stop-color:#3b82f6;stop-opacity:1" />
      <stop offset="100%" style="stop-color:#1d4ed8;stop-opacity:1" />
    </linearGradient>
  </defs>
  
  <!-- Background circle -->
  <circle cx="256" cy="256" r="240" fill="url(#grad1)"/>
  
  <!-- Justice scales symbol -->
  <g fill="#ffffff" stroke="#ffffff" stroke-width="2">
    <!-- Scale base -->
    <line x1="256" y1="150" x2="256" y2="350" stroke-width="4"/>
    <ellipse cx="256" cy="360" rx="30" ry="8" fill="#ffffff"/>
    
    <!-- Scale beam -->
    <line x1="180" y1="180" x2="332" y2="180" stroke-width="3"/>
    
    <!-- Left scale -->
    <line x1="200" y1="180" x2="200" y2="220"/>
    <ellipse cx="200" cy="230" rx="25" ry="8" stroke-width="2"/>
    <path d="M 175 230 Q 175 240, 200 240 Q 225 240, 225 230" fill="none" stroke-width="2"/>
    
    <!-- Right scale -->
    <line x1="312" y1="180" x2="312" y2="220"/>
    <ellipse cx="312" cy="230" rx="25" ry="8" stroke-width="2"/>
    <path d="M 287 230 Q 287 240, 312 240 Q 337 240, 337 230" fill="none" stroke-width="2"/>
    
    <!-- Top ornament -->
    <circle cx="256" cy="150" r="8" fill="#ffffff"/>
  </g>
  
  <!-- Legal book -->
  <g fill="#ffffff" opacity="0.8">
    <rect x="220" y="300" width="72" height="50" rx="4" fill="#ffffff"/>
    <line x1="230" y1="315" x2="282" y2="315" stroke="#3b82f6" stroke-width="1"/>
    <line x1="230" y1="325" x2="275" y2="325" stroke="#3b82f6" stroke-width="1"/>
    <line x1="230" y1="335" x2="280" y2="335" stroke="#3b82f6" stroke-width="1"/>
  </g>
</svg>